<svg xmlns="http://www.w3.org/2000/svg" viewBox="0 0 24 24" fill="currentColor">
  <path d="M12 2.5a9.5 9.5 0 0 0-3 18.52c.48.09.66-.2.66-.46v-1.62c-2.7.58-3.27-1.16-3.27-1.16-.44-1.12-1.08-1.42-1.08-1.42-.88-.6.07-.59.07-.59.98.07 1.5 1 1.5 1 .86 1.48 2.27 1.05 2.82.8.09-.62.34-1.05.62-1.29-2.16-.25-4.42-1.08-4.42-4.78 0-1.05.38-1.92 1-2.6-.1-.25-.44-1.25.1-2.57 0 0 .82-.26 2.67 1a9.2 9.2 0 0 1 4.86 0c1.85-1.26 2.66-1 2.66-1 .55 1.32.21 2.32.11 2.57.63.68 1 1.55 1 2.6 0 3.71-2.27 4.53-4.43 4.77.35.31.66.9.66 1.82v2.7c0 .26.18.56.67.46A9.5 9.5 0 0 0 12 2.5z"/>
</svg>
