<svg xmlns="http://www.w3.org/2000/svg" viewBox="0 0 24 24" fill="none" stroke="currentColor" stroke-width="1.55" stroke-linecap="round" stroke-linejoin="round">
  <path d="M12 3.2a4.1 4.1 0 0 1 3.9 2.8 4.15 4.15 0 0 1 4.1 4.2 4.1 4.1 0 0 1-2 3.55 4.15 4.15 0 0 1-5.55 5.1A4.1 4.1 0 0 1 8.1 18a4.15 4.15 0 0 1-4.1-4.2 4.1 4.1 0 0 1 2-3.55A4.15 4.15 0 0 1 11.55 5.1 4.1 4.1 0 0 1 12 3.2z"/>
  <path d="M8.1 18l3.9-2.25V11.2"/>
  <path d="M6 10.25l4 2.3 4-2.3"/>
  <path d="M15.9 6l-3.9 2.25v4.55"/>
  <path d="M18 13.75l-4-2.3-4 2.3"/>
</svg>
